# Pilha de livros - obstaculo do UFCA Runner
mtllib livros.mtl
o livros
v -0.165055 0.000000 -0.206051
v 0.242470 0.000000 -0.104444
v 0.165055 0.000000 0.206051
v -0.242470 0.000000 0.104444
v -0.165055 0.090000 -0.206051
v 0.242470 0.090000 -0.104444
v 0.165055 0.090000 0.206051
v -0.242470 0.090000 0.104444
v -0.155925 0.013500 -0.190583
v 0.227147 0.013500 -0.095072
v 0.155925 0.013500 0.190583
v -0.227147 0.013500 0.095072
v -0.155925 0.076500 -0.190583
v 0.227147 0.076500 -0.095072
v 0.155925 0.076500 0.190583
v -0.227147 0.076500 0.095072
v -0.182101 0.090000 -0.178523
v 0.219880 0.090000 -0.129166
v 0.182101 0.090000 0.178523
v -0.219880 0.090000 0.129166
v -0.182101 0.180000 -0.178523
v 0.219880 0.180000 -0.129166
v 0.182101 0.180000 0.178523
v -0.219880 0.180000 0.129166
v -0.171553 0.103500 -0.164735
v 0.206310 0.103500 -0.118339
v 0.171553 0.103500 0.164735
v -0.206310 0.103500 0.118339
v -0.171553 0.166500 -0.164735
v 0.206310 0.166500 -0.118339
v 0.171553 0.166500 0.164735
v -0.206310 0.166500 0.118339
v -0.195000 0.180000 -0.150000
v 0.195000 0.180000 -0.150000
v 0.195000 0.180000 0.150000
v -0.195000 0.180000 0.150000
v -0.195000 0.270000 -0.150000
v 0.195000 0.270000 -0.150000
v 0.195000 0.270000 0.150000
v -0.195000 0.270000 0.150000
v -0.183300 0.193500 -0.138000
v 0.183300 0.193500 -0.138000
v 0.183300 0.193500 0.138000
v -0.183300 0.193500 0.138000
v -0.183300 0.256500 -0.138000
v 0.183300 0.256500 -0.138000
v 0.183300 0.256500 0.138000
v -0.183300 0.256500 0.138000
v -0.203773 0.270000 -0.121069
v 0.168431 0.270000 -0.166770
v 0.203773 0.270000 0.121069
v -0.168431 0.270000 0.166770
v -0.203773 0.360000 -0.121069
v 0.168431 0.360000 -0.166770
v 0.203773 0.360000 0.121069
v -0.168431 0.360000 0.166770
v -0.191194 0.283500 -0.110926
v 0.158679 0.283500 -0.153885
v 0.191194 0.283500 0.110926
v -0.158679 0.283500 0.153885
v -0.191194 0.346500 -0.110926
v 0.158679 0.346500 -0.153885
v 0.191194 0.346500 0.110926
v -0.158679 0.346500 0.153885
v -0.208522 0.360000 -0.092295
v 0.140784 0.360000 -0.179387
v 0.208522 0.360000 0.092295
v -0.140784 0.360000 0.179387
v -0.208522 0.450000 -0.092295
v 0.140784 0.450000 -0.179387
v 0.208522 0.450000 0.092295
v -0.140784 0.450000 0.179387
v -0.195334 0.373500 -0.084041
v 0.133014 0.373500 -0.165907
v 0.195334 0.373500 0.084041
v -0.133014 0.373500 0.165907
v -0.195334 0.436500 -0.084041
v 0.133014 0.436500 -0.165907
v 0.195334 0.436500 0.084041
v -0.133014 0.436500 0.165907
vn -0.241922 0.000000 0.970296
vn 0.241922 0.000000 -0.970296
vn 0.970296 0.000000 0.241922
vn -0.970296 0.000000 -0.241922
vn 0.000000 1.000000 0.000000
vn 0.000000 -1.000000 0.000000
vn -0.241922 0.000000 0.970296
vn 0.241922 0.000000 -0.970296
vn 0.970296 0.000000 0.241922
vn -0.970296 0.000000 -0.241922
vn 0.000000 1.000000 0.000000
vn 0.000000 -1.000000 0.000000
vn -0.121869 0.000000 0.992546
vn 0.121869 0.000000 -0.992546
vn 0.992546 0.000000 0.121869
vn -0.992546 0.000000 -0.121869
vn 0.000000 1.000000 0.000000
vn 0.000000 -1.000000 0.000000
vn -0.121869 0.000000 0.992546
vn 0.121869 0.000000 -0.992546
vn 0.992546 0.000000 0.121869
vn -0.992546 0.000000 -0.121869
vn 0.000000 1.000000 0.000000
vn 0.000000 -1.000000 0.000000
vn 0.000000 0.000000 1.000000
vn 0.000000 0.000000 -1.000000
vn 1.000000 0.000000 0.000000
vn -1.000000 0.000000 0.000000
vn 0.000000 1.000000 0.000000
vn 0.000000 -1.000000 0.000000
vn 0.000000 0.000000 1.000000
vn 0.000000 0.000000 -1.000000
vn 1.000000 0.000000 0.000000
vn -1.000000 0.000000 0.000000
vn 0.000000 1.000000 0.000000
vn 0.000000 -1.000000 0.000000
vn 0.121869 0.000000 0.992546
vn -0.121869 0.000000 -0.992546
vn 0.992546 0.000000 -0.121869
vn -0.992546 0.000000 0.121869
vn 0.000000 1.000000 0.000000
vn 0.000000 -1.000000 0.000000
vn 0.121869 0.000000 0.992546
vn -0.121869 0.000000 -0.992546
vn 0.992546 0.000000 -0.121869
vn -0.992546 0.000000 0.121869
vn 0.000000 1.000000 0.000000
vn 0.000000 -1.000000 0.000000
vn 0.241922 0.000000 0.970296
vn -0.241922 0.000000 -0.970296
vn 0.970296 0.000000 -0.241922
vn -0.970296 0.000000 0.241922
vn 0.000000 1.000000 0.000000
vn 0.000000 -1.000000 0.000000
vn 0.241922 0.000000 0.970296
vn -0.241922 0.000000 -0.970296
vn 0.970296 0.000000 -0.241922
vn -0.970296 0.000000 0.241922
vn 0.000000 1.000000 0.000000
vn 0.000000 -1.000000 0.000000
usemtl capa_vermelha
f 4//1 3//1 7//1 8//1
f 2//2 1//2 5//2 6//2
f 3//3 2//3 6//3 7//3
f 1//4 4//4 8//4 5//4
f 8//5 7//5 6//5 5//5
f 1//6 2//6 3//6 4//6
usemtl paginas
f 12//7 11//7 15//7 16//7
f 10//8 9//8 13//8 14//8
f 11//9 10//9 14//9 15//9
f 9//10 12//10 16//10 13//10
f 16//11 15//11 14//11 13//11
f 9//12 10//12 11//12 12//12
usemtl capa_azul
f 20//13 19//13 23//13 24//13
f 18//14 17//14 21//14 22//14
f 19//15 18//15 22//15 23//15
f 17//16 20//16 24//16 21//16
f 24//17 23//17 22//17 21//17
f 17//18 18//18 19//18 20//18
usemtl paginas
f 28//19 27//19 31//19 32//19
f 26//20 25//20 29//20 30//20
f 27//21 26//21 30//21 31//21
f 25//22 28//22 32//22 29//22
f 32//23 31//23 30//23 29//23
f 25//24 26//24 27//24 28//24
usemtl capa_verde
f 36//25 35//25 39//25 40//25
f 34//26 33//26 37//26 38//26
f 35//27 34//27 38//27 39//27
f 33//28 36//28 40//28 37//28
f 40//29 39//29 38//29 37//29
f 33//30 34//30 35//30 36//30
usemtl paginas
f 44//31 43//31 47//31 48//31
f 42//32 41//32 45//32 46//32
f 43//33 42//33 46//33 47//33
f 41//34 44//34 48//34 45//34
f 48//35 47//35 46//35 45//35
f 41//36 42//36 43//36 44//36
usemtl capa_amarela
f 52//37 51//37 55//37 56//37
f 50//38 49//38 53//38 54//38
f 51//39 50//39 54//39 55//39
f 49//40 52//40 56//40 53//40
f 56//41 55//41 54//41 53//41
f 49//42 50//42 51//42 52//42
usemtl paginas
f 60//43 59//43 63//43 64//43
f 58//44 57//44 61//44 62//44
f 59//45 58//45 62//45 63//45
f 57//46 60//46 64//46 61//46
f 64//47 63//47 62//47 61//47
f 57//48 58//48 59//48 60//48
usemtl capa_vermelha
f 68//49 67//49 71//49 72//49
f 66//50 65//50 69//50 70//50
f 67//51 66//51 70//51 71//51
f 65//52 68//52 72//52 69//52
f 72//53 71//53 70//53 69//53
f 65//54 66//54 67//54 68//54
usemtl paginas
f 76//55 75//55 79//55 80//55
f 74//56 73//56 77//56 78//56
f 75//57 74//57 78//57 79//57
f 73//58 76//58 80//58 77//58
f 80//59 79//59 78//59 77//59
f 73//60 74//60 75//60 76//60
