# Lixeira de corredor - obstaculo do UFCA Runner
mtllib lixeira.mtl
o lixeira
v -0.180000 0.000000 -0.180000
v 0.180000 0.000000 -0.180000
v 0.180000 0.000000 0.180000
v -0.180000 0.000000 0.180000
v -0.180000 0.280000 -0.180000
v 0.180000 0.280000 -0.180000
v 0.180000 0.280000 0.180000
v -0.180000 0.280000 0.180000
v -0.210000 0.280000 -0.210000
v 0.210000 0.280000 -0.210000
v 0.210000 0.280000 0.210000
v -0.210000 0.280000 0.210000
v -0.210000 0.600000 -0.210000
v 0.210000 0.600000 -0.210000
v 0.210000 0.600000 0.210000
v -0.210000 0.600000 0.210000
v -0.230000 0.595000 -0.230000
v 0.230000 0.595000 -0.230000
v 0.230000 0.595000 0.230000
v -0.230000 0.595000 0.230000
v -0.230000 0.645000 -0.230000
v 0.230000 0.645000 -0.230000
v 0.230000 0.645000 0.230000
v -0.230000 0.645000 0.230000
v -0.180000 0.630000 -0.180000
v 0.180000 0.630000 -0.180000
v 0.180000 0.630000 0.180000
v -0.180000 0.630000 0.180000
v -0.180000 0.750000 -0.180000
v 0.180000 0.750000 -0.180000
v 0.180000 0.750000 0.180000
v -0.180000 0.750000 0.180000
v -0.055377 0.710000 -0.074469
v 0.107758 0.710000 -0.150540
v 0.175377 0.710000 -0.005531
v 0.012242 0.710000 0.070540
v -0.055377 0.810000 -0.074469
v 0.107758 0.810000 -0.150540
v 0.175377 0.810000 -0.005531
v 0.012242 0.810000 0.070540
vn 0.000000 0.000000 1.000000
vn 0.000000 0.000000 -1.000000
vn 1.000000 0.000000 0.000000
vn -1.000000 0.000000 0.000000
vn 0.000000 1.000000 0.000000
vn 0.000000 -1.000000 0.000000
vn 0.000000 0.000000 1.000000
vn 0.000000 0.000000 -1.000000
vn 1.000000 0.000000 0.000000
vn -1.000000 0.000000 0.000000
vn 0.000000 1.000000 0.000000
vn 0.000000 -1.000000 0.000000
vn 0.000000 0.000000 1.000000
vn 0.000000 0.000000 -1.000000
vn 1.000000 0.000000 0.000000
vn -1.000000 0.000000 0.000000
vn 0.000000 1.000000 0.000000
vn 0.000000 -1.000000 0.000000
vn 0.000000 0.000000 1.000000
vn 0.000000 0.000000 -1.000000
vn 1.000000 0.000000 0.000000
vn -1.000000 0.000000 0.000000
vn 0.000000 1.000000 0.000000
vn 0.000000 -1.000000 0.000000
vn 0.422618 0.000000 0.906308
vn -0.422618 0.000000 -0.906308
vn 0.906308 0.000000 -0.422618
vn -0.906308 0.000000 0.422618
vn 0.000000 1.000000 0.000000
vn 0.000000 -1.000000 0.000000
usemtl plastico_lixeira
f 4//1 3//1 7//1 8//1
f 2//2 1//2 5//2 6//2
f 3//3 2//3 6//3 7//3
f 1//4 4//4 8//4 5//4
f 8//5 7//5 6//5 5//5
f 1//6 2//6 3//6 4//6
usemtl plastico_lixeira
f 12//7 11//7 15//7 16//7
f 10//8 9//8 13//8 14//8
f 11//9 10//9 14//9 15//9
f 9//10 12//10 16//10 13//10
f 16//11 15//11 14//11 13//11
f 9//12 10//12 11//12 12//12
usemtl metal_aro
f 20//13 19//13 23//13 24//13
f 18//14 17//14 21//14 22//14
f 19//15 18//15 22//15 23//15
f 17//16 20//16 24//16 21//16
f 24//17 23//17 22//17 21//17
f 17//18 18//18 19//18 20//18
usemtl saco_lixo
f 28//19 27//19 31//19 32//19
f 26//20 25//20 29//20 30//20
f 27//21 26//21 30//21 31//21
f 25//22 28//22 32//22 29//22
f 32//23 31//23 30//23 29//23
f 25//24 26//24 27//24 28//24
usemtl saco_lixo
f 36//25 35//25 39//25 40//25
f 34//26 33//26 37//26 38//26
f 35//27 34//27 38//27 39//27
f 33//28 36//28 40//28 37//28
f 40//29 39//29 38//29 37//29
f 33//30 34//30 35//30 36//30
