# Pilha de provas - item coletavel do UFCA Runner
# Gerado por tools/gerar_modelos.py
mtllib prova.mtl
o prova
v -0.267284 -0.277585 -0.040000
v 0.189287 -0.333645 -0.040000
v 0.189287 -0.333645 -0.030000
v -0.267284 -0.277585 -0.030000
v -0.189287 0.357645 -0.040000
v 0.267284 0.301585 -0.040000
v 0.267284 0.301585 -0.030000
v -0.189287 0.357645 -0.030000
v -0.240919 -0.308354 -0.026000
v 0.217846 -0.342044 -0.026000
v 0.217846 -0.342044 -0.016000
v -0.240919 -0.308354 -0.016000
v -0.194046 0.329927 -0.026000
v 0.264719 0.296238 -0.026000
v 0.264719 0.296238 -0.016000
v -0.194046 0.329927 -0.016000
v -0.240816 -0.320168 -0.012000
v 0.219047 -0.331407 -0.012000
v 0.219047 -0.331407 -0.002000
v -0.240816 -0.320168 -0.002000
v -0.225180 0.319641 -0.012000
v 0.234683 0.308402 -0.012000
v 0.234683 0.308402 -0.002000
v -0.225180 0.319641 -0.002000
v -0.233223 -0.313526 0.002000
v 0.226640 -0.302287 0.002000
v 0.226640 -0.302287 0.012000
v -0.233223 -0.313526 0.012000
v -0.248859 0.326283 0.002000
v 0.211003 0.337522 0.002000
v 0.211003 0.337522 0.012000
v -0.248859 0.326283 0.012000
v -0.200017 -0.342217 0.016000
v 0.258748 -0.308527 0.016000
v 0.258748 -0.308527 0.026000
v -0.200017 -0.342217 0.026000
v -0.246889 0.296064 0.016000
v 0.211875 0.329754 0.016000
v 0.211875 0.329754 0.026000
v -0.246889 0.296064 0.026000
v -0.179706 -0.351351 0.030000
v 0.276866 -0.295291 0.030000
v 0.276866 -0.295291 0.040000
v -0.179706 -0.351351 0.040000
v -0.257702 0.283878 0.030000
v 0.198869 0.339938 0.030000
v 0.198869 0.339938 0.040000
v -0.257702 0.283878 0.040000
vn 0.000000 0.000000 1.000000
vn 0.000000 0.000000 -1.000000
vn 0.992546 -0.121869 0.000000
vn -0.992546 0.121869 0.000000
vn 0.121869 0.992546 0.000000
vn -0.121869 -0.992546 0.000000
vn 0.000000 0.000000 1.000000
vn 0.000000 0.000000 -1.000000
vn 0.997314 -0.073238 0.000000
vn -0.997314 0.073238 0.000000
vn 0.073238 0.997314 0.000000
vn -0.073238 -0.997314 0.000000
vn 0.000000 0.000000 1.000000
vn 0.000000 0.000000 -1.000000
vn 0.999701 -0.024432 0.000000
vn -0.999701 0.024432 0.000000
vn 0.024432 0.999701 0.000000
vn -0.024432 -0.999701 0.000000
vn 0.000000 0.000000 1.000000
vn 0.000000 0.000000 -1.000000
vn 0.999701 0.024432 0.000000
vn -0.999701 -0.024432 0.000000
vn -0.024432 0.999701 0.000000
vn 0.024432 -0.999701 0.000000
vn 0.000000 0.000000 1.000000
vn 0.000000 0.000000 -1.000000
vn 0.997314 0.073238 0.000000
vn -0.997314 -0.073238 0.000000
vn -0.073238 0.997314 0.000000
vn 0.073238 -0.997314 0.000000
vn 0.000000 0.000000 1.000000
vn 0.000000 0.000000 -1.000000
vn 0.992546 0.121869 0.000000
vn -0.992546 -0.121869 0.000000
vn -0.121869 0.992546 0.000000
vn 0.121869 -0.992546 0.000000
usemtl papel_prova
f 4//1 3//1 7//1 8//1
f 2//2 1//2 5//2 6//2
f 3//3 2//3 6//3 7//3
f 1//4 4//4 8//4 5//4
f 8//5 7//5 6//5 5//5
f 1//6 2//6 3//6 4//6
usemtl papel_prova
f 12//7 11//7 15//7 16//7
f 10//8 9//8 13//8 14//8
f 11//9 10//9 14//9 15//9
f 9//10 12//10 16//10 13//10
f 16//11 15//11 14//11 13//11
f 9//12 10//12 11//12 12//12
usemtl papel_prova
f 20//13 19//13 23//13 24//13
f 18//14 17//14 21//14 22//14
f 19//15 18//15 22//15 23//15
f 17//16 20//16 24//16 21//16
f 24//17 23//17 22//17 21//17
f 17//18 18//18 19//18 20//18
usemtl papel_prova
f 28//19 27//19 31//19 32//19
f 26//20 25//20 29//20 30//20
f 27//21 26//21 30//21 31//21
f 25//22 28//22 32//22 29//22
f 32//23 31//23 30//23 29//23
f 25//24 26//24 27//24 28//24
usemtl papel_prova
f 36//25 35//25 39//25 40//25
f 34//26 33//26 37//26 38//26
f 35//27 34//27 38//27 39//27
f 33//28 36//28 40//28 37//28
f 40//29 39//29 38//29 37//29
f 33//30 34//30 35//30 36//30
usemtl papel_nota
f 44//31 43//31 47//31 48//31
f 42//32 41//32 45//32 46//32
f 43//33 42//33 46//33 47//33
f 41//34 44//34 48//34 45//34
f 48//35 47//35 46//35 45//35
f 41//36 42//36 43//36 44//36
